<mxfile host="app.diagrams.net" modified="2023-03-25T16:28:16.382Z" agent="5.0 (Windows NT 10.0; WOW64) AppleWebKit/537.36 (KHTML, like Gecko) Chrome/111.0.0.0 Safari/537.36" etag="1tu8vqrNIs3Xp8bYMkcE" version="21.0.6" type="github">
  <diagram name="Page-1" id="L3Y32q_-5Cb7mhsE43WJ">
    <mxGraphModel dx="1674" dy="704" grid="1" gridSize="10" guides="1" tooltips="1" connect="1" arrows="1" fold="1" page="1" pageScale="1" pageWidth="850" pageHeight="1100" math="0" shadow="0">
      <root>
        <mxCell id="0" />
        <mxCell id="1" parent="0" />
        <mxCell id="-lUv_aNnzr2wA977I5BW-1" value="user" style="shape=umlActor;verticalLabelPosition=bottom;verticalAlign=top;html=1;outlineConnect=0;" vertex="1" parent="1">
          <mxGeometry x="170" y="290" width="30" height="60" as="geometry" />
        </mxCell>
        <mxCell id="-lUv_aNnzr2wA977I5BW-3" value="doctor" style="shape=umlActor;verticalLabelPosition=bottom;verticalAlign=top;html=1;outlineConnect=0;" vertex="1" parent="1">
          <mxGeometry x="170" y="520" width="30" height="60" as="geometry" />
        </mxCell>
        <mxCell id="-lUv_aNnzr2wA977I5BW-4" value="" style="swimlane;startSize=0;" vertex="1" parent="1">
          <mxGeometry x="280" y="280" width="200" height="320" as="geometry">
            <mxRectangle x="280" y="280" width="50" height="40" as="alternateBounds" />
          </mxGeometry>
        </mxCell>
        <mxCell id="-lUv_aNnzr2wA977I5BW-7" value="view request status" style="ellipse;whiteSpace=wrap;html=1;" vertex="1" parent="-lUv_aNnzr2wA977I5BW-4">
          <mxGeometry x="40" y="110" width="120" height="80" as="geometry" />
        </mxCell>
        <mxCell id="-lUv_aNnzr2wA977I5BW-5" value="database" style="shape=umlActor;verticalLabelPosition=bottom;verticalAlign=top;html=1;outlineConnect=0;" vertex="1" parent="1">
          <mxGeometry x="570" y="430" width="30" height="60" as="geometry" />
        </mxCell>
        <mxCell id="-lUv_aNnzr2wA977I5BW-8" value="" style="endArrow=none;html=1;rounded=0;exitX=1;exitY=0.5;exitDx=0;exitDy=0;" edge="1" parent="1" source="-lUv_aNnzr2wA977I5BW-7">
          <mxGeometry width="50" height="50" relative="1" as="geometry">
            <mxPoint x="520" y="500" as="sourcePoint" />
            <mxPoint x="570" y="450" as="targetPoint" />
          </mxGeometry>
        </mxCell>
        <mxCell id="-lUv_aNnzr2wA977I5BW-9" value="" style="endArrow=none;html=1;rounded=0;" edge="1" parent="1">
          <mxGeometry width="50" height="50" relative="1" as="geometry">
            <mxPoint x="200" y="540" as="sourcePoint" />
            <mxPoint x="320" y="430" as="targetPoint" />
          </mxGeometry>
        </mxCell>
        <mxCell id="-lUv_aNnzr2wA977I5BW-10" value="" style="endArrow=none;html=1;rounded=0;entryX=0;entryY=0.5;entryDx=0;entryDy=0;" edge="1" parent="1" target="-lUv_aNnzr2wA977I5BW-7">
          <mxGeometry width="50" height="50" relative="1" as="geometry">
            <mxPoint x="200" y="310" as="sourcePoint" />
            <mxPoint x="250" y="260" as="targetPoint" />
          </mxGeometry>
        </mxCell>
      </root>
    </mxGraphModel>
  </diagram>
</mxfile>
